<mxfile host="app.diagrams.net" agent="Mozilla/5.0 (Windows NT 10.0; Win64; x64) AppleWebKit/537.36 (KHTML, like Gecko) Chrome/130.0.0.0 Safari/537.36 Edg/130.0.0.0" version="24.8.3">
  <diagram name="第 1 页" id="FYMbNEgqw2H-2m_HZPsc">
    <mxGraphModel dx="1386" dy="818" grid="1" gridSize="10" guides="1" tooltips="1" connect="1" arrows="1" fold="1" page="1" pageScale="1" pageWidth="827" pageHeight="1169" math="0" shadow="0">
      <root>
        <mxCell id="0" />
        <mxCell id="1" parent="0" />
        <mxCell id="Ttxw39PILeQOKgvL27uN-1" value="B" style="ellipse;whiteSpace=wrap;html=1;aspect=fixed;fontSize=46;fontColor=#FF0000;fontStyle=1;verticalAlign=middle;" vertex="1" parent="1">
          <mxGeometry x="350" y="340" width="80" height="80" as="geometry" />
        </mxCell>
        <mxCell id="Ttxw39PILeQOKgvL27uN-8" style="rounded=0;orthogonalLoop=1;jettySize=auto;html=1;exitX=1;exitY=1;exitDx=0;exitDy=0;entryX=0;entryY=0;entryDx=0;entryDy=0;strokeWidth=3;" edge="1" parent="1" source="Ttxw39PILeQOKgvL27uN-2" target="Ttxw39PILeQOKgvL27uN-1">
          <mxGeometry relative="1" as="geometry" />
        </mxCell>
        <mxCell id="Ttxw39PILeQOKgvL27uN-2" value="A" style="ellipse;whiteSpace=wrap;html=1;aspect=fixed;fontSize=46;fontColor=#FF0000;fontStyle=1;verticalAlign=middle;" vertex="1" parent="1">
          <mxGeometry x="240" y="240" width="80" height="80" as="geometry" />
        </mxCell>
        <mxCell id="Ttxw39PILeQOKgvL27uN-9" style="edgeStyle=none;shape=connector;rounded=0;orthogonalLoop=1;jettySize=auto;html=1;exitX=0;exitY=1;exitDx=0;exitDy=0;strokeColor=default;strokeWidth=3;align=center;verticalAlign=middle;fontFamily=Helvetica;fontSize=11;fontColor=default;labelBackgroundColor=default;endArrow=classic;" edge="1" parent="1" source="Ttxw39PILeQOKgvL27uN-3" target="Ttxw39PILeQOKgvL27uN-1">
          <mxGeometry relative="1" as="geometry" />
        </mxCell>
        <mxCell id="Ttxw39PILeQOKgvL27uN-3" value="C" style="ellipse;whiteSpace=wrap;html=1;aspect=fixed;fontSize=46;fontColor=#FF0000;fontStyle=1;verticalAlign=middle;" vertex="1" parent="1">
          <mxGeometry x="410" y="210" width="80" height="80" as="geometry" />
        </mxCell>
        <mxCell id="Ttxw39PILeQOKgvL27uN-10" style="edgeStyle=none;shape=connector;rounded=0;orthogonalLoop=1;jettySize=auto;html=1;exitX=0;exitY=1;exitDx=0;exitDy=0;strokeColor=default;strokeWidth=3;align=center;verticalAlign=middle;fontFamily=Helvetica;fontSize=11;fontColor=default;labelBackgroundColor=default;endArrow=classic;" edge="1" parent="1" source="Ttxw39PILeQOKgvL27uN-4" target="Ttxw39PILeQOKgvL27uN-1">
          <mxGeometry relative="1" as="geometry" />
        </mxCell>
        <mxCell id="Ttxw39PILeQOKgvL27uN-4" value="D" style="ellipse;whiteSpace=wrap;html=1;aspect=fixed;fontSize=46;fontColor=#FF0000;fontStyle=1;verticalAlign=middle;" vertex="1" parent="1">
          <mxGeometry x="495" y="270" width="80" height="80" as="geometry" />
        </mxCell>
        <mxCell id="Ttxw39PILeQOKgvL27uN-11" style="edgeStyle=none;shape=connector;rounded=0;orthogonalLoop=1;jettySize=auto;html=1;exitX=0;exitY=0;exitDx=0;exitDy=0;entryX=1;entryY=1;entryDx=0;entryDy=0;strokeColor=default;strokeWidth=3;align=center;verticalAlign=middle;fontFamily=Helvetica;fontSize=11;fontColor=default;labelBackgroundColor=default;endArrow=classic;" edge="1" parent="1" source="Ttxw39PILeQOKgvL27uN-5" target="Ttxw39PILeQOKgvL27uN-1">
          <mxGeometry relative="1" as="geometry" />
        </mxCell>
        <mxCell id="Ttxw39PILeQOKgvL27uN-5" value="E" style="ellipse;whiteSpace=wrap;html=1;aspect=fixed;fontSize=46;fontColor=#FF0000;fontStyle=1;verticalAlign=middle;" vertex="1" parent="1">
          <mxGeometry x="450" y="480" width="80" height="80" as="geometry" />
        </mxCell>
        <mxCell id="Ttxw39PILeQOKgvL27uN-12" style="edgeStyle=none;shape=connector;rounded=0;orthogonalLoop=1;jettySize=auto;html=1;exitX=0.5;exitY=0;exitDx=0;exitDy=0;strokeColor=default;strokeWidth=3;align=center;verticalAlign=middle;fontFamily=Helvetica;fontSize=11;fontColor=default;labelBackgroundColor=default;endArrow=classic;" edge="1" parent="1" source="Ttxw39PILeQOKgvL27uN-6" target="Ttxw39PILeQOKgvL27uN-1">
          <mxGeometry relative="1" as="geometry" />
        </mxCell>
        <mxCell id="Ttxw39PILeQOKgvL27uN-6" value="F" style="ellipse;whiteSpace=wrap;html=1;aspect=fixed;fontSize=46;fontColor=#FF0000;fontStyle=1;verticalAlign=middle;" vertex="1" parent="1">
          <mxGeometry x="290" y="490" width="80" height="80" as="geometry" />
        </mxCell>
        <mxCell id="Ttxw39PILeQOKgvL27uN-13" style="edgeStyle=none;shape=connector;rounded=0;orthogonalLoop=1;jettySize=auto;html=1;exitX=1;exitY=0;exitDx=0;exitDy=0;strokeColor=default;strokeWidth=3;align=center;verticalAlign=middle;fontFamily=Helvetica;fontSize=11;fontColor=default;labelBackgroundColor=default;endArrow=classic;" edge="1" parent="1" source="Ttxw39PILeQOKgvL27uN-7" target="Ttxw39PILeQOKgvL27uN-1">
          <mxGeometry relative="1" as="geometry" />
        </mxCell>
        <mxCell id="Ttxw39PILeQOKgvL27uN-7" value="G" style="ellipse;whiteSpace=wrap;html=1;aspect=fixed;fontSize=46;fontColor=#FF0000;fontStyle=1;verticalAlign=middle;" vertex="1" parent="1">
          <mxGeometry x="210" y="400" width="80" height="80" as="geometry" />
        </mxCell>
        <mxCell id="Ttxw39PILeQOKgvL27uN-14" value="" style="endArrow=none;dashed=1;html=1;rounded=0;strokeColor=default;strokeWidth=3;align=center;verticalAlign=middle;fontFamily=Helvetica;fontSize=11;fontColor=default;labelBackgroundColor=default;" edge="1" parent="1">
          <mxGeometry width="50" height="50" relative="1" as="geometry">
            <mxPoint x="150" y="370" as="sourcePoint" />
            <mxPoint x="630" y="400" as="targetPoint" />
          </mxGeometry>
        </mxCell>
        <mxCell id="Ttxw39PILeQOKgvL27uN-15" value="" style="endArrow=none;dashed=1;html=1;rounded=0;strokeColor=default;strokeWidth=3;align=center;verticalAlign=middle;fontFamily=Helvetica;fontSize=11;fontColor=default;labelBackgroundColor=default;" edge="1" parent="1">
          <mxGeometry width="50" height="50" relative="1" as="geometry">
            <mxPoint x="320" y="170" as="sourcePoint" />
            <mxPoint x="430" y="580" as="targetPoint" />
          </mxGeometry>
        </mxCell>
      </root>
    </mxGraphModel>
  </diagram>
</mxfile>
